<?xml version="1.0" standalone="no"?>
<!DOCTYPE svg PUBLIC "-//W3C//DTD SVG 20010904//EN"
 "http://www.w3.org/TR/2001/REC-SVG-20010904/DTD/svg10.dtd">
<svg version="1.0" xmlns="http://www.w3.org/2000/svg"
 width="300.000000pt" height="300.000000pt" viewBox="0 0 300.000000 300.000000"
 preserveAspectRatio="xMidYMid meet">
<metadata>
Created by potrace 1.11, written by Peter Selinger 2001-2013
</metadata>
<g transform="translate(0.000000,300.000000) scale(0.100000,-0.100000)"
fill="#000000" stroke="none">
<path d="M1598 2471 c11 -7 11 -9 -2 -14 -8 -3 -17 -1 -20 6 -3 7 -4 3 -3 -8
1 -11 7 -23 12 -27 6 -5 4 -8 -5 -8 -13 0 -13 -1 0 -10 9 -6 11 -13 5 -17 -5
-5 -10 -15 -10 -23 0 -8 5 -18 10 -22 6 -5 4 -12 -5 -18 -13 -9 -13 -11 0 -20
13 -9 13 -10 0 -10 -13 0 -13 -1 0 -10 9 -6 11 -13 5 -17 -5 -5 -10 -15 -10
-23 0 -8 5 -18 10 -22 6 -5 4 -12 -5 -18 -13 -9 -13 -11 0 -20 13 -9 13 -10 0
-10 -13 0 -13 -1 0 -10 9 -6 11 -13 5 -17 -5 -5 -10 -15 -10 -23 0 -8 5 -18
10 -22 6 -5 4 -12 -5 -18 -13 -9 -13 -11 0 -20 13 -9 13 -10 0 -10 -13 0 -13
-1 0 -10 13 -9 13 -10 0 -10 -13 0 -13 -1 0 -10 13 -9 13 -10 0 -10 -13 0 -13
-1 0 -10 13 -9 13 -10 0 -10 -13 0 -13 -1 0 -10 13 -9 13 -10 0 -10 -13 0 -13
-1 0 -10 13 -9 13 -10 0 -10 -13 0 -13 -1 0 -10 13 -9 13 -10 0 -10 -13 0 -13
-1 0 -10 13 -9 13 -10 0 -10 -13 0 -13 -1 0 -10 13 -9 13 -10 0 -10 -13 0 -13
-1 0 -10 13 -9 13 -10 0 -10 -13 0 -13 -1 0 -10 13 -9 13 -10 0 -10 -13 0 -13
-1 0 -10 13 -9 13 -10 0 -10 -13 0 -13 -1 0 -10 13 -9 13 -10 0 -10 -13 0 -13
-1 0 -10 13 -9 13 -10 0 -10 -13 0 -13 -1 0 -10 13 -9 13 -10 0 -10 -13 0 -13
-1 0 -10 13 -9 13 -10 0 -10 -13 0 -13 -1 0 -10 13 -9 13 -10 0 -10 -12 0 -12
-2 -1 -9 7 -5 9 -11 4 -14 -9 -6 -8 -75 1 -85 3 -2 1 -13 -5 -23 -7 -14 -6
-19 3 -19 9 0 9 -3 -2 -10 -8 -5 -10 -10 -4 -10 12 0 11 -41 -1 -59 -3 -6 -2
-11 3 -11 5 0 8 -10 6 -22 -1 -13 -3 -26 -3 -30 -1 -5 -9 -8 -18 -7 -11 0 -13
3 -5 6 6 2 12 10 12 16 0 5 -3 7 -7 4 -13 -14 -32 27 -21 47 7 13 7 16 -1 12
-7 -5 -11 2 -11 17 0 13 -11 34 -24 46 -16 15 -22 29 -18 43 4 17 2 20 -11 15
-9 -3 -19 -1 -23 5 -4 7 -3 8 4 4 7 -4 12 -2 12 3 0 6 -4 11 -10 11 -5 0 -10
10 -10 23 0 18 -2 19 -10 7 -5 -8 -10 -10 -10 -4 0 16 -95 114 -109 114 -7 0
-9 5 -6 10 3 6 -3 10 -14 10 -14 0 -19 5 -15 14 4 11 0 13 -15 9 -13 -3 -21
-1 -21 6 0 7 -5 9 -12 5 -8 -5 -8 -2 1 10 12 15 12 17 0 14 -8 -2 -17 -7 -21
-13 -5 -6 -8 -5 -8 3 0 6 -7 12 -16 12 -8 0 -13 4 -10 8 3 5 -5 8 -17 8 -14
-1 -21 4 -19 13 3 12 1 12 -14 0 -10 -8 -15 -9 -12 -4 4 6 3 17 -3 25 -7 12
-9 11 -9 -4 0 -15 -3 -17 -12 -8 -8 8 -16 8 -32 0 -19 -10 -20 -10 -7 5 12 15
10 17 -13 17 -15 0 -25 4 -22 9 7 10 -13 9 -31 -2 -6 -4 -14 -1 -16 5 -4 10
-6 9 -6 -1 -1 -11 -4 -11 -16 -1 -12 10 -15 10 -16 -1 0 -8 -4 -5 -9 6 -5 11
-9 14 -9 8 -1 -9 -8 -10 -27 -2 -25 9 -26 8 -13 -8 9 -11 4 -10 -15 5 -26 20
-31 21 -46 7 -12 -11 -19 -12 -28 -3 -9 9 -15 9 -24 -1 -11 -11 -10 -12 1 -6
9 5 12 4 7 -3 -5 -9 -13 -8 -30 4 -21 13 -25 13 -40 -1 -9 -9 -16 -12 -16 -7
0 5 -7 9 -15 9 -8 0 -12 -3 -10 -7 2 -4 -10 -8 -28 -9 -54 -3 -56 -4 -51 -12
2 -5 -11 -7 -30 -6 -25 2 -33 0 -29 -10 3 -7 -2 -14 -11 -14 -9 -1 -22 -2 -28
-3 -7 -1 -17 3 -21 9 -5 6 -7 3 -3 -7 3 -11 -2 -22 -14 -28 -15 -8 -20 -8 -20
2 -1 7 -7 2 -14 -11 -10 -18 -15 -20 -19 -10 -4 10 -6 9 -6 -3 -1 -10 -12 -20
-26 -24 -14 -3 -22 -11 -18 -17 4 -6 0 -8 -10 -4 -9 3 -19 1 -23 -5 -5 -7 -2
-8 6 -3 9 6 11 4 6 -4 -5 -7 -14 -10 -21 -7 -9 3 -12 -1 -10 -13 2 -12 -2 -18
-13 -17 -9 0 -16 -5 -14 -12 1 -8 -2 -11 -7 -8 -13 8 -34 -21 -25 -35 4 -8 3
-9 -4 -5 -7 4 -12 3 -12 -3 0 -6 -8 -8 -18 -5 -14 5 -15 4 -2 -5 13 -10 13
-13 -3 -22 -9 -6 -15 -14 -12 -20 4 -5 -1 -9 -9 -9 -8 0 -18 -5 -22 -12 -5 -8
-1 -9 12 -5 18 7 18 7 0 -8 -11 -8 -16 -15 -11 -15 5 0 0 -7 -11 -16 -10 -8
-13 -13 -7 -9 9 4 11 1 7 -9 -3 -9 -10 -13 -15 -10 -5 3 -6 -2 -3 -10 3 -9 1
-16 -6 -16 -6 0 -8 -4 -5 -10 3 -5 1 -10 -6 -10 -10 0 -10 -3 -2 -11 12 -12 6
-42 -7 -34 -5 3 -7 -6 -5 -20 1 -14 -3 -25 -9 -25 -6 0 -5 -4 3 -9 9 -6 10
-11 2 -15 -6 -4 -9 -12 -6 -17 4 -5 0 -9 -7 -9 -8 0 -9 -3 -3 -8 13 -9 17 -32
6 -32 -5 0 -11 -7 -14 -14 -4 -11 -1 -13 11 -10 15 5 15 4 2 -8 -16 -14 -20
-71 -6 -85 6 -5 6 -2 1 7 -5 8 -4 12 0 7 13 -11 15 -38 3 -31 -7 5 -8 2 -3 -7
11 -17 14 -50 5 -44 -4 2 -7 -2 -7 -10 0 -8 4 -12 8 -10 4 3 10 -2 13 -11 4
-10 2 -13 -7 -8 -8 5 -7 2 2 -9 8 -10 11 -20 7 -24 -3 -3 1 -15 11 -25 10 -12
12 -18 4 -18 -7 0 -9 -5 -6 -10 4 -6 12 -7 18 -3 7 4 5 -2 -3 -13 -8 -10 -10
-16 -6 -12 5 5 20 -17 34 -47 14 -30 29 -55 33 -55 5 0 9 -4 9 -10 0 -12 10
-23 89 -107 33 -34 62 -59 67 -55 4 4 4 -1 1 -11 -4 -11 -3 -16 4 -12 6 4 17
-1 25 -11 9 -11 13 -13 9 -7 -3 7 -2 13 3 13 6 0 13 -7 16 -16 4 -9 9 -14 13
-10 3 3 13 -3 20 -14 10 -14 21 -19 34 -15 11 4 19 2 19 -5 0 -7 7 -9 16 -6 8
3 12 2 9 -3 -3 -5 -1 -12 5 -16 5 -3 10 -2 10 4 0 6 7 8 15 5 8 -4 12 -11 8
-18 -4 -6 2 -4 13 4 10 8 16 10 12 6 -4 -5 0 -15 10 -22 14 -10 20 -10 35 4
16 15 17 15 11 -1 -7 -20 6 -22 25 -4 12 10 13 9 7 -7 -5 -16 -4 -17 9 -6 8 7
15 8 15 2 0 -6 45 -10 115 -11 88 -2 115 1 115 11 0 8 3 9 8 2 8 -11 69 -11
80 1 4 5 -1 5 -11 2 -10 -4 -16 -3 -13 2 3 5 24 8 46 6 22 -1 40 2 40 7 0 5 5
6 10 3 6 -3 10 -1 10 6 0 6 8 9 20 6 11 -3 20 0 20 5 0 6 6 6 15 -2 12 -10 14
-8 10 9 -3 15 0 18 12 14 12 -5 14 -3 8 8 -6 11 -5 12 6 2 18 -18 26 -16 32 7
3 13 10 18 21 14 11 -4 16 0 16 12 1 18 2 18 16 -1 10 -12 14 -14 12 -5 -9 28
34 54 46 28 3 -7 3 -2 0 11 -5 19 -3 23 9 18 12 -4 15 -1 12 14 -4 18 -2 19
11 8 8 -7 14 -8 13 -3 -4 17 13 44 28 44 8 0 11 5 8 10 -3 6 -2 10 4 10 5 0
12 -6 15 -12 4 -9 5 -8 5 2 -2 30 1 41 11 35 9 -5 15 15 11 37 0 5 3 7 8 5 5
-1 10 3 12 8 5 18 24 33 34 27 6 -3 3 3 -5 13 -13 17 -13 18 1 13 13 -5 15 -1
11 19 -3 18 -1 24 7 19 6 -4 12 0 13 11 2 27 4 36 16 64 5 14 9 40 8 57 -1 17
2 29 6 26 10 -6 10 -6 -1 34 -6 20 -6 30 0 27 12 -8 11 2 -2 27 -10 18 -9 20
7 14 18 -6 18 -5 0 9 -11 8 -15 15 -8 15 6 0 9 6 6 14 -9 22 -11 106 -3 106
10 0 6 34 -6 42 -5 4 -1 8 10 8 19 0 20 -7 20 -130 0 -72 -3 -130 -8 -130 -4
0 -5 -6 0 -12 12 -19 10 -102 -2 -110 -6 -5 -5 -12 5 -18 13 -9 13 -10 0 -10
-13 0 -13 -2 -1 -9 12 -8 12 -12 2 -25 -11 -13 -11 -16 0 -16 12 0 12 -2 0 -9
-11 -7 -11 -9 0 -14 12 -4 11 -7 -1 -16 -13 -10 -13 -12 0 -21 13 -9 13 -10 0
-10 -13 0 -13 -1 0 -10 9 -6 11 -13 5 -18 -5 -4 -10 -14 -10 -22 0 -8 5 -18
10 -22 6 -5 4 -12 -5 -18 -13 -9 -13 -11 0 -20 13 -9 13 -10 0 -10 -13 0 -13
-1 0 -10 13 -9 13 -10 0 -10 -13 0 -13 -1 0 -10 13 -9 13 -10 0 -10 -13 0 -13
-1 0 -10 13 -9 13 -10 0 -10 -13 0 -13 -1 0 -10 13 -9 13 -10 0 -10 -13 0 -13
-1 0 -10 13 -9 13 -10 0 -10 -13 0 -13 -1 0 -10 13 -9 13 -10 0 -10 -12 0 -13
-2 -1 -9 11 -7 11 -9 0 -14 -10 -4 -10 -6 -2 -6 9 -1 10 -8 2 -27 -5 -15 -7
-29 -4 -32 3 -3 5 0 5 6 0 7 5 12 11 12 5 0 7 -6 3 -13 -4 -6 -4 -9 1 -5 4 4
15 2 24 -5 14 -10 14 -10 4 4 -12 14 -6 16 46 15 38 0 57 -4 53 -11 -3 -5 2
-4 11 4 14 11 17 11 17 0 0 -9 3 -10 8 -4 8 13 51 13 71 1 9 -6 12 -5 8 1 -8
13 52 11 73 -2 9 -5 11 -4 6 3 -4 7 -2 12 3 12 6 0 11 -5 11 -12 0 -9 3 -9 12
0 9 9 16 8 32 -6 15 -12 17 -13 9 -1 -9 11 -10 18 -1 27 8 8 8 16 -3 28 -8 10
-9 15 -3 12 7 -5 10 20 9 75 -1 45 2 87 7 94 6 7 4 14 -3 19 -8 5 -9 3 -4 -6
6 -9 4 -11 -4 -5 -9 5 -10 10 -2 18 13 13 15 31 3 23 -5 -3 -9 1 -9 9 0 8 3
12 7 10 3 -2 5 33 5 78 -1 45 2 87 7 94 6 7 4 14 -3 19 -8 5 -9 3 -4 -6 5 -9
4 -11 -3 -6 -8 4 -9 14 -4 24 5 9 8 40 7 67 -1 28 2 55 7 62 6 7 4 14 -3 19
-8 5 -9 3 -4 -6 6 -9 4 -11 -4 -5 -9 5 -10 10 -2 18 13 13 15 31 3 23 -5 -3
-9 1 -9 9 0 8 3 12 7 10 4 -2 6 22 6 55 -2 45 1 57 10 49 9 -8 11 -5 7 10 -3
12 -1 21 6 21 9 0 9 5 0 21 -9 17 -8 20 2 14 9 -6 11 -3 6 9 -4 9 -3 15 2 12
11 -7 23 22 15 35 -3 5 -2 9 3 8 17 -3 36 1 30 7 -3 3 4 15 15 26 15 15 22 17
28 8 5 -8 9 -7 13 4 4 9 1 16 -6 16 -8 0 -7 4 3 10 9 6 17 5 22 -3 6 -9 8 -9
8 1 0 6 7 12 16 12 8 0 13 4 10 9 -3 5 9 8 28 7 19 -1 32 3 28 8 -3 5 2 7 11
3 9 -3 18 -1 21 6 3 9 5 9 5 0 1 -7 6 -13 12 -13 5 0 8 4 5 8 -6 10 25 9 42
-2 7 -4 12 -2 12 6 0 8 3 9 8 3 11 -16 47 -41 39 -29 -4 7 1 14 12 17 14 3 18
1 14 -10 -3 -8 0 -13 8 -11 8 2 13 -3 11 -10 -2 -9 3 -10 15 -4 24 11 66 -30
49 -49 -8 -9 -8 -10 2 -5 6 4 12 2 12 -4 0 -6 4 -9 8 -6 4 2 14 -5 22 -17 12
-20 12 -21 -4 -8 -14 12 -16 12 -10 -3 3 -9 12 -16 20 -16 8 0 14 -5 14 -11 0
-5 -4 -8 -9 -5 -4 3 -6 -6 -3 -19 2 -14 9 -22 15 -18 5 3 7 1 3 -5 -3 -6 -2
-21 3 -35 7 -17 6 -28 -2 -37 -9 -9 -9 -11 0 -6 15 8 8 -60 -9 -82 -11 -15
-11 -16 4 -4 14 12 16 9 13 -23 -2 -20 -10 -44 -17 -53 -11 -15 -11 -16 4 -4
14 12 16 9 13 -23 -2 -20 -10 -44 -17 -53 -11 -15 -11 -16 4 -4 14 12 16 9 13
-23 -2 -20 -10 -44 -17 -53 -11 -15 -11 -16 4 -4 14 12 16 9 13 -23 -2 -20
-10 -44 -17 -53 -11 -15 -11 -16 4 -4 14 12 16 9 13 -23 -2 -20 -10 -44 -17
-53 -11 -15 -11 -16 4 -4 14 12 16 9 13 -23 -2 -20 -10 -44 -17 -53 -11 -15
-11 -16 4 -4 14 12 16 9 13 -23 -2 -20 -10 -44 -17 -53 -12 -15 -11 -16 5 -3
20 15 22 9 6 -21 -8 -15 -8 -19 0 -14 7 4 11 -1 11 -13 0 -11 -7 -24 -15 -29
-13 -7 -11 -10 10 -20 15 -7 31 -10 36 -7 5 4 9 1 9 -6 0 -8 4 -8 13 -2 14 12
136 11 156 -2 9 -5 12 -4 8 2 -7 12 51 11 70 0 5 -4 13 -3 17 0 10 10 48 14
42 5 -6 -10 24 -9 41 1 16 10 17 933 1 943 -7 5 -8 2 -3 -6 5 -8 4 -11 -3 -6
-6 3 -9 16 -7 28 3 11 1 26 -2 32 -4 6 -7 20 -8 32 0 11 -7 29 -15 39 -8 11
-10 16 -3 12 7 -4 10 -1 9 10 -2 9 -9 19 -17 21 -11 3 -11 1 1 -8 13 -10 13
-11 0 -7 -8 2 -15 9 -15 15 0 6 -5 16 -12 23 -6 6 -9 18 -6 25 3 8 0 14 -5 14
-6 0 -19 14 -29 30 -9 17 -23 30 -31 30 -7 0 -11 4 -8 8 3 5 -6 15 -19 22 -13
7 -22 17 -19 22 3 4 -2 8 -11 8 -10 0 -13 5 -9 13 6 9 5 9 -8 0 -17 -15 -32
-5 -18 12 6 8 1 11 -18 11 -18 -1 -26 4 -24 13 3 12 1 12 -14 0 -10 -8 -15 -9
-11 -2 9 15 -13 23 -35 12 -14 -7 -16 -5 -13 12 4 17 2 19 -10 9 -14 -12 -20
-7 -16 14 1 5 -4 4 -12 -3 -12 -9 -16 -9 -20 1 -4 10 -6 10 -6 -1 -1 -11 -4
-11 -18 0 -14 12 -15 12 -9 0 5 -8 -3 -6 -20 5 -15 11 -25 13 -21 7 6 -10 0
-11 -25 -7 -18 3 -38 7 -45 9 -7 2 -15 0 -19 -6 -4 -7 -10 -6 -19 1 -9 8 -17
6 -29 -5 -9 -9 -16 -12 -16 -6 0 6 -7 11 -15 11 -8 0 -15 -5 -15 -11 0 -8 -5
-8 -15 1 -12 10 -15 10 -15 0 0 -10 -3 -10 -16 0 -12 11 -15 11 -12 0 2 -10
-6 -14 -24 -14 -16 1 -28 -3 -28 -8 0 -5 -4 -6 -10 -3 -5 3 -10 1 -10 -6 0 -9
-3 -9 -14 0 -11 9 -16 9 -22 0 -5 -8 -3 -10 7 -5 8 4 6 1 -4 -8 -11 -8 -27
-13 -38 -11 -10 2 -22 -1 -25 -7 -5 -7 -2 -8 6 -3 9 6 11 4 6 -4 -5 -7 -15
-10 -23 -7 -9 4 -11 2 -7 -6 5 -7 2 -9 -9 -5 -11 4 -14 2 -11 -8 4 -11 -1 -13
-23 -9 -19 3 -24 2 -14 -5 15 -10 5 -35 -11 -25 -6 4 -8 22 -5 40 3 19 2 32
-2 30 -4 -3 -8 1 -8 9 0 8 3 12 7 10 3 -2 5 33 5 78 -1 45 2 87 7 94 6 7 4 14
-3 19 -8 5 -9 3 -4 -6 6 -9 4 -11 -4 -5 -9 5 -10 10 -2 18 13 13 15 31 3 23
-5 -3 -9 1 -9 9 0 8 3 12 7 10 3 -2 5 33 5 78 -1 45 2 87 7 94 6 7 4 14 -3 19
-8 5 -9 3 -4 -6 5 -9 4 -11 -4 -6 -6 4 -8 12 -5 18 11 18 13 97 2 104 -6 4 -5
9 3 15 8 5 2 7 -16 5 -17 -1 -35 -5 -42 -9 -6 -4 -14 -1 -16 5 -4 10 -6 10 -6
1 -1 -7 -9 -13 -18 -13 -15 0 -16 2 -3 10 17 11 -41 7 -79 -5 -14 -4 -21 -3
-18 2 4 5 0 10 -8 10 -8 0 -12 -4 -9 -9 3 -4 1 -8 -5 -8 -5 0 -12 6 -14 13 -4
10 -6 10 -6 0 -1 -7 -9 -13 -18 -13 -15 0 -16 2 -3 10 17 11 -41 7 -79 -5 -13
-4 -21 -3 -18 2 3 5 -4 10 -16 10 -15 2 -18 0 -9 -6z m102 -7 c0 -8 -19 -13
-24 -6 -3 5 1 9 9 9 8 0 15 -2 15 -3z m160 0 c0 -8 -19 -13 -24 -6 -3 5 1 9 9
9 8 0 15 -2 15 -3z m100 0 c0 -8 -19 -13 -24 -6 -3 5 1 9 9 9 8 0 15 -2 15 -3z
m-1184 -823 c-3 -4 14 -8 39 -7 24 0 41 4 38 9 -3 5 7 1 23 -9 15 -11 25 -14
21 -7 -4 7 -1 10 10 9 9 -2 19 -8 21 -14 2 -7 13 -12 24 -12 11 0 28 -10 39
-22 10 -13 18 -17 19 -10 0 6 -5 12 -12 12 -6 0 -9 3 -5 6 11 11 77 -48 77
-70 0 -17 2 -18 10 -6 8 13 10 12 10 -3 0 -11 4 -15 11 -11 9 5 10 -1 5 -22
-4 -19 -3 -24 3 -15 7 11 11 10 19 -5 5 -11 8 -27 7 -36 -2 -10 2 -21 7 -25 7
-4 8 -1 3 7 -5 8 -4 11 3 6 6 -4 9 -13 5 -21 -3 -9 1 -15 8 -15 9 0 10 -3 4
-8 -12 -8 -19 -36 -7 -29 12 8 12 -116 -1 -131 -8 -10 -7 -16 4 -23 8 -5 9 -9
2 -9 -6 0 -9 -9 -6 -20 3 -12 0 -20 -6 -20 -7 0 -10 -4 -6 -10 3 -5 1 -17 -4
-27 -5 -10 -12 -26 -15 -36 -3 -10 -10 -16 -15 -13 -4 3 -8 -4 -7 -17 1 -16
-4 -22 -17 -20 -10 0 -16 -1 -13 -4 10 -11 -16 -45 -30 -39 -8 3 -13 0 -11 -7
1 -7 -4 -11 -10 -9 -7 1 -13 -5 -13 -13 0 -18 -11 -19 -29 -2 -11 10 -13 10
-7 0 4 -8 1 -13 -8 -13 -8 0 -18 -5 -22 -12 -4 -6 -3 -8 4 -4 6 3 13 3 15 -1
3 -5 -10 -8 -29 -9 -21 0 -31 3 -26 10 3 6 -6 3 -21 -6 -31 -21 -41 -23 -31
-6 5 7 3 8 -5 3 -24 -14 -80 -13 -86 3 -4 12 -9 12 -17 4 -9 -9 -15 -8 -27 1
-12 10 -13 9 -7 -3 4 -8 -2 -2 -15 13 -15 20 -24 25 -29 16 -6 -9 -15 -5 -34
14 -14 14 -35 28 -46 32 -11 4 -18 10 -15 15 3 5 1 11 -5 15 -6 4 -8 11 -5 16
4 5 -2 6 -11 2 -13 -5 -16 -3 -11 10 3 9 2 17 -3 17 -5 0 -14 10 -21 21 -6 12
-7 19 -2 16 5 -4 10 0 10 8 0 8 -4 12 -9 9 -7 -5 -12 10 -9 29 0 4 -4 7 -10 7
-8 0 -7 6 2 17 12 14 12 16 0 8 -11 -6 -13 -3 -9 13 4 14 2 20 -4 16 -6 -4 -8
1 -3 15 4 14 2 21 -7 21 -8 0 -9 3 -3 8 16 11 18 65 2 56 -8 -6 -8 -3 1 9 8 9
10 22 6 28 -5 9 -2 10 10 6 12 -5 15 -3 9 6 -13 21 -12 39 2 33 13 -5 15 10 3
29 -8 13 16 47 26 37 5 -4 6 2 4 13 -2 13 2 19 11 17 12 -3 12 -1 0 14 -8 10
-9 15 -4 12 9 -5 37 15 31 23 -1 2 16 20 38 39 l41 34 -30 -34 -30 -34 32 25
c18 13 32 31 33 39 0 13 1 13 10 0 7 -12 10 -12 10 -1 0 8 6 11 16 7 10 -4 13
-2 8 6 -5 7 -2 9 9 5 9 -3 18 1 22 11 5 13 8 14 14 3 7 -10 10 -9 14 3 4 9 9
16 12 16 4 0 4 -4 1 -9z m744 -81 c0 -5 -2 -10 -4 -10 -3 0 -8 5 -11 10 -3 6
-1 10 4 10 6 0 11 -4 11 -10z"/>
<path d="M2457 1559 c7 -7 15 -10 18 -7 3 3 -2 9 -12 12 -14 6 -15 5 -6 -5z"/>
<path d="M1385 769 c-4 -6 -5 -12 -2 -15 2 -3 7 2 10 11 7 17 1 20 -8 4z"/>
</g>
</svg>
